<mxfile host="app.diagrams.net" agent="Mozilla/5.0 (Windows NT 10.0; Win64; x64) AppleWebKit/537.36 (KHTML, like Gecko) Chrome/139.0.0.0 Safari/537.36 Edg/139.0.0.0" version="28.1.2">
  <diagram name="Page-1" id="Oxd-Gnnp0cI7EY-jCEC0">
    <mxGraphModel dx="3794" dy="1843" grid="1" gridSize="10" guides="1" tooltips="1" connect="1" arrows="1" fold="1" page="1" pageScale="1" pageWidth="850" pageHeight="1100" math="0" shadow="0">
      <root>
        <mxCell id="0" />
        <mxCell id="1" parent="0" />
        <mxCell id="9-CMpRLNuppDFcrcLKN0-22" value="" style="endArrow=classic;html=1;rounded=0;" parent="1" edge="1">
          <mxGeometry width="50" height="50" relative="1" as="geometry">
            <mxPoint x="40" y="667" as="sourcePoint" />
            <mxPoint x="-680" y="667" as="targetPoint" />
          </mxGeometry>
        </mxCell>
        <mxCell id="s8l9SCObQ_Q2c-ipgAVG-3" value="" style="rounded=1;whiteSpace=wrap;html=1;arcSize=4;fillColor=#DDEEFF;dashed=1;dashPattern=8 8;opacity=50;" parent="1" vertex="1">
          <mxGeometry x="40" y="85" width="410" height="945" as="geometry" />
        </mxCell>
        <mxCell id="s8l9SCObQ_Q2c-ipgAVG-2" value="Raspberry Pi Pico" style="rounded=0;whiteSpace=wrap;html=1;fillColor=#d5e8d4;strokeColor=#82b366;verticalAlign=top;" parent="1" vertex="1">
          <mxGeometry x="92.5" y="110" width="300" height="610" as="geometry" />
        </mxCell>
        <mxCell id="s8l9SCObQ_Q2c-ipgAVG-4" value="Centauri Drone" style="text;html=1;align=center;verticalAlign=middle;whiteSpace=wrap;rounded=0;fontSize=20;" parent="1" vertex="1">
          <mxGeometry x="150" y="50" width="185" height="30" as="geometry" />
        </mxCell>
        <mxCell id="9-CMpRLNuppDFcrcLKN0-1" value="" style="rounded=1;whiteSpace=wrap;html=1;arcSize=4;fillColor=#DDEEFF;dashed=1;dashPattern=8 8;strokeColor=#6c8ebf;opacity=50;" parent="1" vertex="1">
          <mxGeometry x="-2080" y="85" width="1380" height="925" as="geometry" />
        </mxCell>
        <mxCell id="9-CMpRLNuppDFcrcLKN0-2" value="Centauri Remote Controller" style="text;html=1;align=center;verticalAlign=middle;whiteSpace=wrap;rounded=0;fontSize=20;" parent="1" vertex="1">
          <mxGeometry x="-1383.75" y="50" width="357.5" height="30" as="geometry" />
        </mxCell>
        <mxCell id="9-CMpRLNuppDFcrcLKN0-3" value="" style="endArrow=classic;html=1;rounded=0;" parent="1" edge="1">
          <mxGeometry width="50" height="50" relative="1" as="geometry">
            <mxPoint x="-700" y="337" as="sourcePoint" />
            <mxPoint y="337" as="targetPoint" />
          </mxGeometry>
        </mxCell>
        <mxCell id="9-CMpRLNuppDFcrcLKN0-4" value="Control Packet&lt;div&gt;&lt;br&gt;&lt;/div&gt;&lt;div&gt;Throttle&lt;/div&gt;&lt;div&gt;Pitch&lt;/div&gt;&lt;div&gt;Roll&lt;/div&gt;&lt;div&gt;Yaw&lt;/div&gt;&lt;div&gt;&lt;br&gt;&lt;/div&gt;" style="rounded=0;whiteSpace=wrap;html=1;fillColor=#dae8fc;strokeColor=#6c8ebf;verticalAlign=top;" parent="1" vertex="1">
          <mxGeometry x="-482" y="282" width="230" height="100" as="geometry" />
        </mxCell>
        <mxCell id="9-CMpRLNuppDFcrcLKN0-21" value="&lt;div&gt;&lt;u&gt;Telemetry Packet&lt;/u&gt;&lt;/div&gt;&lt;div&gt;Battery Level&lt;/div&gt;&lt;div&gt;Actual Pitch Rate&lt;/div&gt;&lt;div&gt;Actual Roll Rate&lt;/div&gt;&lt;div&gt;Actual Yaw Rate&lt;/div&gt;&lt;div&gt;Est. Pitch angle&lt;/div&gt;&lt;div&gt;Est. Roll Angle&lt;/div&gt;" style="rounded=0;whiteSpace=wrap;html=1;fillColor=#dae8fc;strokeColor=#6c8ebf;verticalAlign=top;" parent="1" vertex="1">
          <mxGeometry x="-463" y="614" width="192.5" height="121" as="geometry" />
        </mxCell>
        <mxCell id="1nN7b9fCO7w4V5sfwXuX-2" value="" style="endArrow=classic;html=1;rounded=0;" parent="1" edge="1">
          <mxGeometry width="50" height="50" relative="1" as="geometry">
            <mxPoint x="40" y="790" as="sourcePoint" />
            <mxPoint x="-680" y="790" as="targetPoint" />
          </mxGeometry>
        </mxCell>
        <mxCell id="1nN7b9fCO7w4V5sfwXuX-1" value="&lt;u&gt;Special Packet&lt;/u&gt;&lt;div&gt;&lt;br&gt;&lt;/div&gt;&lt;div&gt;Text (limited to X chars)&lt;/div&gt;" style="rounded=0;whiteSpace=wrap;html=1;fillColor=#dae8fc;strokeColor=#6c8ebf;verticalAlign=top;" parent="1" vertex="1">
          <mxGeometry x="-455" y="750" width="192.5" height="60" as="geometry" />
        </mxCell>
        <mxCell id="1nN7b9fCO7w4V5sfwXuX-11" value="Transceiver" style="rounded=0;whiteSpace=wrap;html=1;fillColor=#d5e8d4;strokeColor=#82b366;verticalAlign=top;" parent="1" vertex="1">
          <mxGeometry x="-1090" y="157" width="340" height="786.5" as="geometry" />
        </mxCell>
        <mxCell id="1nN7b9fCO7w4V5sfwXuX-12" value="PC" style="rounded=0;whiteSpace=wrap;html=1;fillColor=#f5f5f5;strokeColor=#666666;verticalAlign=top;fontColor=#333333;" parent="1" vertex="1">
          <mxGeometry x="-1730" y="157" width="340" height="786.5" as="geometry" />
        </mxCell>
        <mxCell id="1nN7b9fCO7w4V5sfwXuX-13" value="Xbox Controller" style="ellipse;whiteSpace=wrap;html=1;aspect=fixed;fillColor=#e1d5e7;strokeColor=#9673a6;" parent="1" vertex="1">
          <mxGeometry x="-2000" y="465.75" width="169" height="169" as="geometry" />
        </mxCell>
        <mxCell id="1nN7b9fCO7w4V5sfwXuX-16" value="" style="endArrow=classic;html=1;rounded=0;" parent="1" edge="1">
          <mxGeometry width="50" height="50" relative="1" as="geometry">
            <mxPoint x="-1390" y="204.58000000000004" as="sourcePoint" />
            <mxPoint x="-1100" y="204.58000000000004" as="targetPoint" />
          </mxGeometry>
        </mxCell>
        <mxCell id="1nN7b9fCO7w4V5sfwXuX-17" value="PING" style="rounded=0;whiteSpace=wrap;html=1;fillColor=#f8cecc;strokeColor=#b85450;" parent="1" vertex="1">
          <mxGeometry x="-1300" y="190" width="140" height="30" as="geometry" />
        </mxCell>
        <mxCell id="1nN7b9fCO7w4V5sfwXuX-18" value="" style="endArrow=classic;html=1;rounded=0;" parent="1" edge="1">
          <mxGeometry width="50" height="50" relative="1" as="geometry">
            <mxPoint x="-1090" y="244.57999999999998" as="sourcePoint" />
            <mxPoint x="-1380" y="244.57999999999998" as="targetPoint" />
          </mxGeometry>
        </mxCell>
        <mxCell id="1nN7b9fCO7w4V5sfwXuX-19" value="PONG" style="rounded=0;whiteSpace=wrap;html=1;fillColor=#f8cecc;strokeColor=#b85450;" parent="1" vertex="1">
          <mxGeometry x="-1300" y="230" width="140" height="30" as="geometry" />
        </mxCell>
        <mxCell id="1nN7b9fCO7w4V5sfwXuX-23" value="" style="endArrow=classic;html=1;rounded=0;" parent="1" edge="1">
          <mxGeometry width="50" height="50" relative="1" as="geometry">
            <mxPoint x="-1090" y="455" as="sourcePoint" />
            <mxPoint x="-1380" y="455" as="targetPoint" />
          </mxGeometry>
        </mxCell>
        <mxCell id="1nN7b9fCO7w4V5sfwXuX-22" value="&lt;u&gt;Data&lt;/u&gt;&lt;div&gt;Any structure&lt;/div&gt;&lt;div&gt;(just a pass through)&lt;/div&gt;" style="rounded=0;whiteSpace=wrap;html=1;fillColor=#dae8fc;strokeColor=#6c8ebf;verticalAlign=middle;" parent="1" vertex="1">
          <mxGeometry x="-1326.25" y="431" width="192.5" height="50" as="geometry" />
        </mxCell>
        <mxCell id="1nN7b9fCO7w4V5sfwXuX-24" value="" style="endArrow=classic;html=1;rounded=0;" parent="1" edge="1">
          <mxGeometry width="50" height="50" relative="1" as="geometry">
            <mxPoint x="-1390" y="389.67" as="sourcePoint" />
            <mxPoint x="-1100" y="389.67" as="targetPoint" />
          </mxGeometry>
        </mxCell>
        <mxCell id="1nN7b9fCO7w4V5sfwXuX-20" value="&lt;u&gt;Data&lt;/u&gt;&lt;div&gt;Any structure&lt;/div&gt;&lt;div&gt;(just a pass through)&lt;/div&gt;" style="rounded=0;whiteSpace=wrap;html=1;fillColor=#dae8fc;strokeColor=#6c8ebf;verticalAlign=middle;" parent="1" vertex="1">
          <mxGeometry x="-1326.25" y="365" width="192.5" height="50" as="geometry" />
        </mxCell>
        <mxCell id="1nN7b9fCO7w4V5sfwXuX-25" value="" style="endArrow=none;html=1;rounded=0;exitX=1;exitY=0.5;exitDx=0;exitDy=0;entryX=0;entryY=0.5;entryDx=0;entryDy=0;" parent="1" source="1nN7b9fCO7w4V5sfwXuX-13" target="1nN7b9fCO7w4V5sfwXuX-12" edge="1">
          <mxGeometry width="50" height="50" relative="1" as="geometry">
            <mxPoint x="-1410" y="510" as="sourcePoint" />
            <mxPoint x="-1360" y="460" as="targetPoint" />
          </mxGeometry>
        </mxCell>
        <mxCell id="1nN7b9fCO7w4V5sfwXuX-28" value="" style="endArrow=classic;html=1;rounded=0;" parent="1" edge="1">
          <mxGeometry width="50" height="50" relative="1" as="geometry">
            <mxPoint x="-1090" y="313.58" as="sourcePoint" />
            <mxPoint x="-1380" y="313.58" as="targetPoint" />
          </mxGeometry>
        </mxCell>
        <mxCell id="1nN7b9fCO7w4V5sfwXuX-29" value="Special&lt;div&gt;Transceiver Message, error, etc.&lt;/div&gt;" style="rounded=0;whiteSpace=wrap;html=1;fillColor=#f8cecc;strokeColor=#b85450;" parent="1" vertex="1">
          <mxGeometry x="-1300" y="276" width="140" height="74" as="geometry" />
        </mxCell>
        <mxCell id="1nN7b9fCO7w4V5sfwXuX-31" value="" style="endArrow=classic;html=1;rounded=0;" parent="1" edge="1">
          <mxGeometry width="50" height="50" relative="1" as="geometry">
            <mxPoint x="-700" y="495" as="sourcePoint" />
            <mxPoint y="495" as="targetPoint" />
          </mxGeometry>
        </mxCell>
        <mxCell id="1nN7b9fCO7w4V5sfwXuX-30" value="&lt;div&gt;Settings Update&lt;/div&gt;&lt;div&gt;&lt;br&gt;&lt;/div&gt;&lt;div&gt;&lt;div&gt;Pitch P Gain&lt;/div&gt;&lt;div&gt;Pitch I Gain&lt;/div&gt;&lt;div&gt;Pitch D Gain&lt;/div&gt;&lt;div&gt;Roll P Gain&lt;/div&gt;&lt;div&gt;Roll I Gain&lt;/div&gt;&lt;div&gt;Roll D Gain&lt;/div&gt;&lt;div&gt;Yaw P Gain&lt;/div&gt;&lt;div&gt;Yaw I Gain&lt;/div&gt;&lt;div&gt;Yaw D Gain&lt;/div&gt;&lt;div&gt;PID I Limit&lt;/div&gt;&lt;div&gt;&lt;br&gt;&lt;/div&gt;&lt;/div&gt;" style="rounded=0;whiteSpace=wrap;html=1;fillColor=#dae8fc;strokeColor=#6c8ebf;verticalAlign=top;" parent="1" vertex="1">
          <mxGeometry x="-472" y="405" width="230" height="190" as="geometry" />
        </mxCell>
        <mxCell id="hxOUQ-tuv7XgyCP0HNfm-2" value="Centauri: Quadcopter Flight Controller Communication Protocol" style="text;html=1;align=center;verticalAlign=middle;whiteSpace=wrap;rounded=0;fontSize=28;fontStyle=5" parent="1" vertex="1">
          <mxGeometry x="-887.5" y="-130" width="980" height="55" as="geometry" />
        </mxCell>
        <mxCell id="hxOUQ-tuv7XgyCP0HNfm-3" value="github.com/TimHanewich/centauri" style="text;html=1;align=center;verticalAlign=middle;whiteSpace=wrap;rounded=0;fontSize=16;" parent="1" vertex="1">
          <mxGeometry x="-569.25" y="-89" width="343.5" height="30" as="geometry" />
        </mxCell>
        <mxCell id="hxOUQ-tuv7XgyCP0HNfm-4" value="© Tim Hanewich 2025" style="text;html=1;align=center;verticalAlign=middle;whiteSpace=wrap;rounded=0;fontSize=16;" parent="1" vertex="1">
          <mxGeometry x="-569.25" y="-66" width="343.5" height="30" as="geometry" />
        </mxCell>
        <mxCell id="UkAOlF5Lu69NK4UGbiny-1" value="" style="endArrow=classic;html=1;rounded=0;" parent="1" edge="1">
          <mxGeometry width="50" height="50" relative="1" as="geometry">
            <mxPoint x="-700" y="130.00000000000003" as="sourcePoint" />
            <mxPoint y="130.00000000000003" as="targetPoint" />
          </mxGeometry>
        </mxCell>
        <mxCell id="UkAOlF5Lu69NK4UGbiny-2" value="PING" style="rounded=0;whiteSpace=wrap;html=1;fillColor=#f8cecc;strokeColor=#b85450;" parent="1" vertex="1">
          <mxGeometry x="-425" y="114" width="140" height="30" as="geometry" />
        </mxCell>
        <mxCell id="UkAOlF5Lu69NK4UGbiny-5" value="" style="endArrow=classic;html=1;rounded=0;" parent="1" edge="1">
          <mxGeometry width="50" height="50" relative="1" as="geometry">
            <mxPoint x="40" y="170" as="sourcePoint" />
            <mxPoint x="-680" y="170" as="targetPoint" />
          </mxGeometry>
        </mxCell>
        <mxCell id="UkAOlF5Lu69NK4UGbiny-6" value="PONG" style="rounded=0;whiteSpace=wrap;html=1;fillColor=#f8cecc;strokeColor=#b85450;" parent="1" vertex="1">
          <mxGeometry x="-425" y="154" width="140" height="30" as="geometry" />
        </mxCell>
      </root>
    </mxGraphModel>
  </diagram>
</mxfile>
